<svg width="97" height="118" viewBox="0 0 97 118" fill="none" xmlns="http://www.w3.org/2000/svg">
<g clip-path="url(#clip0)">
<path d="M28.1612 77.1829L49.0215 112.124L69.8817 77.1829C75.7921 77.8782 89.4903 83.4409 97 100.129C89.6989 107.43 77.7043 118.382 49.0215 118.382C20.3387 118.382 8.34404 107.43 1.04297 100.129C8.55265 83.4409 22.2509 77.8782 28.1612 77.1829Z" fill="white"/>
<path d="M27.1183 76.1399L47.9785 111.081L68.8387 76.1399C74.7491 76.8352 88.4473 82.398 95.957 99.0861C88.6559 106.387 76.6613 117.339 47.9785 117.339C19.2957 117.339 7.30107 106.387 0 99.0861C7.50968 82.398 21.2079 76.8352 27.1183 76.1399Z" fill="#3E3C3D"/>
<circle cx="49.0216" cy="33.3763" r="32.3333" fill="white"/>
<circle cx="47.9786" cy="32.3333" r="32.3333" fill="#3E3C3D"/>
<path d="M57.8871 40.1558V25.0322C57.8871 22.728 59.755 20.8601 62.0592 20.8601H63.1022C64.8303 20.8601 66.2312 19.4592 66.2312 17.7311V17.7311C66.2312 16.003 64.8303 14.6021 63.1022 14.6021H50.3253M57.8871 40.1558H60.4947C62.7988 40.1558 64.6667 38.2879 64.6667 35.9838V31.8117C64.6667 29.5076 62.7988 27.6397 60.4947 27.6397H46.414C44.1099 27.6397 42.242 25.7718 42.242 23.4677V14.6021V12.2553C42.242 10.0951 40.4908 8.34399 38.3307 8.34399H37.5484C35.8203 8.34399 34.4194 9.74491 34.4194 11.473V11.473C34.4194 13.2011 35.8203 14.6021 37.5484 14.6021H50.3253M57.8871 40.1558H40.156C37.8518 40.1558 35.9839 38.2879 35.9839 35.9838V24.2499C35.9839 22.3778 34.4663 20.8601 32.5941 20.8601V20.8601C30.722 20.8601 29.2043 22.3778 29.2043 24.2499V29.7257C29.2043 32.0299 31.0722 33.8978 33.3764 33.8978H46.1533C48.4574 33.8978 50.3253 32.0299 50.3253 29.7257V14.6021" stroke="white" stroke-width="2.08602"/>
<path d="M46.9354 78.7474C39.843 75.827 43.2849 70.4033 49.0215 70.4033C54.758 70.4033 58.2 75.827 51.1075 78.7474C51.1075 90.2205 54.1932 88.1076 54.758 93.3496C55.1874 97.3348 52.9857 101.626 49.0215 108.473C45.0572 101.626 42.8555 97.3348 43.2849 93.3496C43.8497 88.1076 46.9354 90.2205 46.9354 78.7474Z" fill="white"/>
<path d="M45.8925 77.7042C38.8 74.7838 42.2419 69.3601 47.9785 69.3601C53.715 69.3601 57.157 74.7838 50.0645 77.7042C50.0645 89.1773 53.1503 87.0644 53.715 92.3063C54.1444 96.2916 51.9427 100.583 47.9785 107.43C44.0143 100.583 41.8126 96.2916 42.2419 92.3063C42.8067 87.0644 45.8925 89.1773 45.8925 77.7042Z" fill="#3E3C3D"/>
</g>
<defs>
<clipPath id="clip0">
<rect width="96.2632" height="118" fill="white"/>
</clipPath>
</defs>
</svg>
