<svg width="132" height="108" viewBox="0 0 132 108" fill="none" xmlns="http://www.w3.org/2000/svg">
<g clip-path="url(#clip0)">
<path d="M0.693313 81.4177L5.54614 86.675C5.94973 87.1122 6.63598 87.1259 7.05672 86.7052L33.8481 59.9138C34.2503 59.5116 34.9001 59.5038 35.3118 59.8964L56.3518 79.9578C56.7647 80.3515 57.4168 80.3424 57.8186 79.9373L119.261 17.9824C119.65 17.5905 120.276 17.5673 120.693 17.9295L130.265 26.2532C130.943 26.8428 132 26.3612 132 25.4626V1.04762C132 0.469035 131.531 0 130.952 0H106.159C105.238 0 104.765 1.10314 105.4 1.77011L113.485 10.2597C113.878 10.6714 113.87 11.3208 113.468 11.7229L57.8097 67.3807C57.411 67.7795 56.7683 67.7911 56.3554 67.407L35.3 47.8206C34.8917 47.4408 34.2574 47.4473 33.8571 47.8355L0.733812 79.9551C0.325652 80.3509 0.307679 81 0.693313 81.4177Z" fill="black"/>
<path d="M28.2857 108.952H11.5238C10.9452 108.952 10.4762 108.483 10.4762 107.905V91.6133C10.4762 91.3141 10.6042 91.0291 10.8278 90.8303L27.5897 75.9308C28.2653 75.3303 29.3333 75.8099 29.3333 76.7138V107.905C29.3333 108.483 28.8643 108.952 28.2857 108.952Z" fill="black"/>
<path d="M54.4762 108.952H37.1905C36.6119 108.952 36.1429 108.483 36.1429 107.905V76.4875C36.1429 75.6222 37.1326 75.1299 37.8227 75.6521L55.1084 88.7332C55.37 88.9313 55.5238 89.2404 55.5238 89.5686V107.905C55.5238 108.483 55.0548 108.952 54.4762 108.952Z" fill="black"/>
<path d="M81.1905 108.952H64.9524C64.3738 108.952 63.9048 108.483 63.9048 107.905V85.2911C63.9048 85.0132 64.0151 84.7468 64.2116 84.5503L80.4497 68.3122C81.1097 67.6522 82.2381 68.1197 82.2381 69.053V107.905C82.2381 108.483 81.7691 108.952 81.1905 108.952Z" fill="black"/>
<path d="M107.381 108.952H90.0952C89.5167 108.952 89.0476 108.483 89.0476 107.905V59.6416C89.0476 59.3536 89.1661 59.0784 89.3753 58.8805L106.661 42.5291C107.329 41.8974 108.429 42.3708 108.429 43.2902V107.905C108.429 108.483 107.96 108.952 107.381 108.952Z" fill="black"/>
</g>
<defs>
<clipPath id="clip0">
<rect width="132" height="108" fill="white"/>
</clipPath>
</defs>
</svg>
