<svg width="129" height="121" viewBox="0 0 129 121" fill="none" xmlns="http://www.w3.org/2000/svg">
<path d="M38.3086 70.0395L14.5727 83.9715L17.4454 63.8611C17.5771 62.9393 17.0659 62.0524 16.2459 61.6111C-4.88395 50.2398 -0.895963 -0.702821 51.2086 4.50754C77.5862 7.14525 89.1939 28.2434 88.6928 38.0474M38.3086 70.0395C38.9966 82.4235 50.3829 106.675 90.4245 104.611L114.16 117.511L111.064 97.3874C129.124 83.9715 139.444 46.8194 88.6928 38.0474M38.3086 70.0395C70.0719 73.0778 87.7899 55.7134 88.6928 38.0474" stroke="white" stroke-width="6.192" stroke-linecap="round" stroke-linejoin="round"/>
<path d="M37.2766 69.0074L13.5407 82.9394L16.4134 62.8289C16.5451 61.9071 16.0342 61.0203 15.2141 60.5794C-5.93766 49.2069 -2.43355 -1.78557 50.1766 3.4754C76.5542 6.11314 88.3202 24.1153 87.6608 37.0153M37.2766 69.0074C37.9646 81.3914 49.3509 105.643 89.3925 103.579L113.128 116.479L110.032 96.3553C128.092 82.9394 138.412 45.7873 87.6608 37.0153M37.2766 69.0074C69.0399 72.0457 86.7579 54.6812 87.6608 37.0153" stroke="#3E3C3D" stroke-width="6.192" stroke-linecap="round" stroke-linejoin="round"/>
</svg>
