<svg width="101" height="47" viewBox="0 0 101 47" fill="none" xmlns="http://www.w3.org/2000/svg">
<g clip-path="url(#clip0)">
<path d="M14.9321 2.088H22.2921C22.7188 2.088 23.0388 2.42933 23.2521 3.112L35.7961 44.392L35.9241 44.648C35.9668 44.8613 35.9881 45.032 35.9881 45.16C35.9881 45.672 35.6468 45.928 34.9641 45.928H27.8601C27.4761 45.928 27.1988 45.864 27.0281 45.736C26.8575 45.5653 26.6868 45.1813 26.5161 44.584L23.7001 34.216H12.6921L10.0681 44.584C9.94014 45.1387 9.81214 45.5013 9.68414 45.672C9.55614 45.8427 9.30014 45.928 8.91614 45.928H2.06814C1.12947 45.928 0.809471 45.5013 1.10814 44.648L13.8441 3.048C13.9295 2.792 13.9935 2.62133 14.0361 2.536C14.0788 2.45067 14.1641 2.36533 14.2921 2.28C14.4628 2.152 14.6761 2.088 14.9321 2.088ZM22.1001 28.456L19.4761 17.448C18.9215 15.0587 18.4521 12.2213 18.0681 8.936H17.8761C17.7908 11.368 17.3215 14.2053 16.4681 17.448L13.6521 28.456H22.1001Z" fill="white"/>
<path d="M40.7816 2.088H50.8936C56.0136 2.088 59.683 2.92 61.9016 4.584C64.5043 6.58933 65.8056 9.49067 65.8056 13.288C65.8056 17.896 63.6296 21.1173 59.2776 22.952C59.9176 23.1227 60.5363 23.336 61.1336 23.592C61.731 23.8053 62.4136 24.1893 63.1816 24.744C63.9496 25.2987 64.611 25.96 65.1656 26.728C65.763 27.4533 66.2536 28.4347 66.6376 29.672C67.0643 30.9093 67.2776 32.296 67.2776 33.832C67.2776 35.9227 66.9363 37.736 66.2536 39.272C65.571 40.808 64.7176 42.0027 63.6936 42.856C62.7123 43.6667 61.4536 44.328 59.9176 44.84C58.4243 45.3093 57.0376 45.608 55.7576 45.736C54.4776 45.864 53.027 45.928 51.4056 45.928H40.7816C39.9283 45.928 39.5016 45.5013 39.5016 44.648V3.368C39.5016 2.51466 39.9283 2.088 40.7816 2.088ZM48.2056 20.2H50.1896C54.8403 20.2 57.1656 18.1947 57.1656 14.184C57.1656 10.6 55.075 8.808 50.8936 8.808H48.2056V20.2ZM48.2056 39.208H50.5096C51.6616 39.208 52.6216 39.144 53.3896 39.016C54.2003 38.888 55.0323 38.6533 55.8856 38.312C56.7816 37.928 57.4643 37.3093 57.9336 36.456C58.403 35.56 58.6376 34.4507 58.6376 33.128C58.6376 31.9333 58.4243 30.9307 57.9976 30.12C57.571 29.2667 57.1016 28.648 56.5896 28.264C56.0776 27.8373 55.3736 27.5173 54.4776 27.304C53.6243 27.0907 52.9416 26.984 52.4296 26.984C51.9603 26.9413 51.363 26.92 50.6376 26.92H48.2056V39.208Z" fill="white"/>
<path d="M98.1901 38.376L100.174 41.96C100.387 42.344 100.494 42.664 100.494 42.92C100.494 43.2613 100.238 43.624 99.7261 44.008C97.2941 46.0133 93.9661 47.016 89.7421 47.016C78.7768 47.016 73.2941 39.5493 73.2941 24.616C73.2941 20.8187 73.6355 17.4693 74.3181 14.568C75.0435 11.6667 75.9395 9.384 77.0061 7.72C78.1155 6.056 79.4168 4.712 80.9101 3.688C82.4035 2.62133 83.8328 1.91733 85.1981 1.576C86.6061 1.192 88.0568 1 89.5501 1C93.5181 1 96.7181 2.06667 99.1501 4.2C99.9608 4.88267 100.366 5.43733 100.366 5.864C100.366 5.992 100.259 6.26933 100.046 6.696L97.6781 10.28C97.4221 10.7067 97.1875 10.92 96.9741 10.92C96.6755 10.92 96.2275 10.6853 95.6301 10.216C93.7101 8.68 91.9395 7.912 90.3181 7.912C88.1421 7.912 86.4141 8.59467 85.1341 9.96C83.2995 11.8373 82.3821 16.5733 82.3821 24.168C82.3821 30.7387 83.2141 35.1547 84.8781 37.416C86.2435 39.208 88.1208 40.104 90.5101 40.104C92.2168 40.104 93.9661 39.5707 95.7581 38.504C96.6115 37.992 97.1448 37.736 97.3581 37.736C97.6568 37.736 97.9341 37.9493 98.1901 38.376Z" fill="white"/>
<path d="M13.9321 1.088H21.2921C21.7188 1.088 22.0388 1.42933 22.2521 2.112L34.7961 43.392L34.9241 43.648C34.9668 43.8613 34.9881 44.032 34.9881 44.16C34.9881 44.672 34.6468 44.928 33.9641 44.928H26.8601C26.4761 44.928 26.1988 44.864 26.0281 44.736C25.8575 44.5653 25.6868 44.1813 25.5161 43.584L22.7001 33.216H11.6921L9.06814 43.584C8.94014 44.1387 8.81214 44.5013 8.68414 44.672C8.55614 44.8427 8.30014 44.928 7.91614 44.928H1.06814C0.129471 44.928 -0.190529 44.5013 0.108138 43.648L12.8441 2.048C12.9295 1.792 12.9935 1.62133 13.0361 1.536C13.0788 1.45067 13.1641 1.36533 13.2921 1.28C13.4628 1.152 13.6761 1.088 13.9321 1.088ZM21.1001 27.456L18.4761 16.448C17.9215 14.0587 17.4521 11.2213 17.0681 7.936H16.8761C16.7908 10.368 16.3215 13.2053 15.4681 16.448L12.6521 27.456H21.1001Z" fill="#282828"/>
<path d="M39.7816 1.088H49.8936C55.0136 1.088 58.683 1.92 60.9016 3.584C63.5043 5.58933 64.8056 8.49067 64.8056 12.288C64.8056 16.896 62.6296 20.1173 58.2776 21.952C58.9176 22.1227 59.5363 22.336 60.1336 22.592C60.731 22.8053 61.4136 23.1893 62.1816 23.744C62.9496 24.2987 63.611 24.96 64.1656 25.728C64.763 26.4533 65.2536 27.4347 65.6376 28.672C66.0643 29.9093 66.2776 31.296 66.2776 32.832C66.2776 34.9227 65.9363 36.736 65.2536 38.272C64.571 39.808 63.7176 41.0027 62.6936 41.856C61.7123 42.6667 60.4536 43.328 58.9176 43.84C57.4243 44.3093 56.0376 44.608 54.7576 44.736C53.4776 44.864 52.027 44.928 50.4056 44.928H39.7816C38.9283 44.928 38.5016 44.5013 38.5016 43.648V2.368C38.5016 1.51466 38.9283 1.088 39.7816 1.088ZM47.2056 19.2H49.1896C53.8403 19.2 56.1656 17.1947 56.1656 13.184C56.1656 9.6 54.075 7.808 49.8936 7.808H47.2056V19.2ZM47.2056 38.208H49.5096C50.6616 38.208 51.6216 38.144 52.3896 38.016C53.2003 37.888 54.0323 37.6533 54.8856 37.312C55.7816 36.928 56.4643 36.3093 56.9336 35.456C57.403 34.56 57.6376 33.4507 57.6376 32.128C57.6376 30.9333 57.4243 29.9307 56.9976 29.12C56.571 28.2667 56.1016 27.648 55.5896 27.264C55.0776 26.8373 54.3736 26.5173 53.4776 26.304C52.6243 26.0907 51.9416 25.984 51.4296 25.984C50.9603 25.9413 50.363 25.92 49.6376 25.92H47.2056V38.208Z" fill="#282828"/>
<path d="M97.1901 37.376L99.1741 40.96C99.3875 41.344 99.4941 41.664 99.4941 41.92C99.4941 42.2613 99.2381 42.624 98.7261 43.008C96.2941 45.0133 92.9661 46.016 88.7421 46.016C77.7768 46.016 72.2941 38.5493 72.2941 23.616C72.2941 19.8187 72.6355 16.4693 73.3181 13.568C74.0435 10.6667 74.9395 8.384 76.0061 6.72C77.1155 5.056 78.4168 3.712 79.9101 2.688C81.4035 1.62133 82.8328 0.917332 84.1981 0.576C85.6061 0.192 87.0568 0 88.5501 0C92.5181 0 95.7181 1.06667 98.1501 3.2C98.9608 3.88267 99.3661 4.43733 99.3661 4.864C99.3661 4.992 99.2595 5.26933 99.0461 5.696L96.6781 9.28C96.4221 9.70667 96.1875 9.92 95.9741 9.92C95.6755 9.92 95.2275 9.68533 94.6301 9.216C92.7101 7.68 90.9395 6.912 89.3181 6.912C87.1421 6.912 85.4141 7.59467 84.1341 8.96C82.2995 10.8373 81.3821 15.5733 81.3821 23.168C81.3821 29.7387 82.2141 34.1547 83.8781 36.416C85.2435 38.208 87.1208 39.104 89.5101 39.104C91.2168 39.104 92.9661 38.5707 94.7581 37.504C95.6115 36.992 96.1448 36.736 96.3581 36.736C96.6568 36.736 96.9341 36.9493 97.1901 37.376Z" fill="#282828"/>
</g>
<defs>
<clipPath id="clip0">
<rect width="101" height="47" fill="white"/>
</clipPath>
</defs>
</svg>
