<svg width="129" height="118" viewBox="0 0 129 118" fill="none" xmlns="http://www.w3.org/2000/svg">
<path d="M79.278 93.6785H96.4268M113.576 93.6785H96.4268M96.4268 93.6785V77.8095M96.4268 93.6785V110.571M67.5042 95.7261L53.6828 96.7499L20.9209 114.155L23.9923 87.0237C-12.8646 54.7737 4.82701 22.6078 32.1828 9.72611C42.8908 4.68377 55.0723 3.58325 64.4328 3.58325C127.397 3.58325 137.123 57.8452 113.576 77.8095" stroke="black" stroke-width="5.63095" stroke-linecap="round" stroke-linejoin="round"/>
<path d="M37.4853 46.4718C37.3722 46.4718 37.2805 46.3801 37.2805 46.267V31.9428C37.2805 31.8297 37.3722 31.738 37.4853 31.738H41.0908C41.1561 31.738 41.2176 31.7692 41.2561 31.822L48.0377 41.1024C48.1546 41.2623 48.4078 41.1796 48.4078 40.9816V31.9428C48.4078 31.8297 48.4995 31.738 48.6126 31.738H51.8957C52.0088 31.738 52.1005 31.8297 52.1005 31.9428V46.267C52.1005 46.3801 52.0088 46.4718 51.8957 46.4718H48.3638C48.2986 46.4718 48.2373 46.4408 48.1987 46.3882L41.3676 37.084C41.2506 36.9245 40.9978 37.0074 40.9978 37.2052V46.267C40.9978 46.3801 40.9062 46.4718 40.7931 46.4718H37.4853Z" fill="black"/>
<path d="M67.2379 31.738C67.351 31.738 67.4427 31.8297 67.4427 31.9428V34.182C67.4427 34.2951 67.351 34.3868 67.2379 34.3868H58.3172C58.2041 34.3868 58.1125 34.4785 58.1125 34.5916V37.3895C58.1125 37.5026 58.2041 37.5943 58.3172 37.5943H66.4747C66.5878 37.5943 66.6795 37.686 66.6795 37.7991V39.9348C66.6795 40.0479 66.5878 40.1396 66.4747 40.1396H58.3172C58.2041 40.1396 58.1125 40.2313 58.1125 40.3443V43.5562C58.1125 43.6693 58.2041 43.7609 58.3172 43.7609H67.4102C67.5233 43.7609 67.615 43.8526 67.615 43.9657V46.267C67.615 46.3801 67.5233 46.4718 67.4102 46.4718H54.5015C54.3884 46.4718 54.2967 46.3801 54.2967 46.267V31.9428C54.2967 31.8297 54.3884 31.738 54.5015 31.738H67.2379Z" fill="black"/>
<path d="M67.4883 32.0045C67.4467 31.8725 67.5452 31.738 67.6836 31.738H71.1139C71.2057 31.738 71.2863 31.7991 71.3111 31.8876L73.8875 41.0823C73.9427 41.2791 74.2204 41.2825 74.2804 41.0872L77.1085 31.8827C77.1349 31.7967 77.2143 31.738 77.3042 31.738H80.6192C80.7097 31.738 80.7895 31.7975 80.8154 31.8842L83.5994 41.2072C83.658 41.4032 83.9361 41.4017 83.9925 41.205L86.6621 31.8864C86.6873 31.7986 86.7676 31.738 86.859 31.738H90.2151C90.3539 31.738 90.4524 31.8732 90.41 32.0053L85.8148 46.3296C85.7876 46.4143 85.7088 46.4718 85.6198 46.4718H82.0813C81.9908 46.4718 81.911 46.4124 81.8851 46.3256L79.1232 37.0772C79.0649 36.8818 78.788 36.8825 78.7305 37.0781L76.0144 46.3247C75.9888 46.4119 75.9088 46.4718 75.818 46.4718H72.2071C72.1177 46.4718 72.0387 46.4139 72.0118 46.3287L67.4883 32.0045Z" fill="black"/>
<path d="M28.6839 57.8713C28.6422 57.7393 28.7407 57.6049 28.8791 57.6049H32.3095C32.4013 57.6049 32.4819 57.666 32.5066 57.7544L35.0831 66.9491C35.1382 67.1459 35.4159 67.1494 35.476 66.954L38.304 57.7495C38.3304 57.6635 38.4098 57.6049 38.4997 57.6049H41.8147C41.9052 57.6049 41.985 57.6643 42.0109 57.751L44.795 67.074C44.8535 67.2701 45.1317 67.2685 45.188 67.0718L47.8577 57.7532C47.8828 57.6654 47.9631 57.6049 48.0545 57.6049H51.4106C51.5494 57.6049 51.648 57.74 51.6056 57.8722L47.0103 72.1964C46.9831 72.2812 46.9043 72.3386 46.8153 72.3386H43.2768C43.1863 72.3386 43.1066 72.2792 43.0806 72.1925L40.3187 62.944C40.2604 62.7487 39.9835 62.7493 39.9261 62.9449L37.21 72.1916C37.1844 72.2788 37.1044 72.3386 37.0135 72.3386H33.4026C33.3133 72.3386 33.2342 72.2807 33.2073 72.1955L28.6839 57.8713Z" fill="black"/>
<path d="M60.1682 57.2531C62.7284 57.2531 64.7963 57.9705 66.3719 59.4052C67.9638 60.8262 68.7598 62.6886 68.7598 64.9924C68.7598 67.2963 67.9638 69.1587 66.3719 70.5797C64.7963 71.9868 62.7202 72.6904 60.1435 72.6904C57.5505 72.6904 55.4579 71.9868 53.866 70.5797C52.274 69.1587 51.478 67.2963 51.478 64.9924C51.478 62.661 52.2658 60.7917 53.8414 59.3845C55.4333 57.9636 57.5422 57.2531 60.1682 57.2531ZM60.1189 59.9019C58.6747 59.9019 57.5176 60.3571 56.6478 61.2676C55.7944 62.1781 55.3677 63.399 55.3677 64.9304C55.3677 66.5169 55.7944 67.7585 56.6478 68.6552C57.5012 69.5519 58.6747 70.0072 60.1682 70.021C61.6288 70.021 62.7777 69.5657 63.6147 68.6552C64.4517 67.7447 64.8702 66.5031 64.8702 64.9304C64.8702 63.3853 64.4435 62.1643 63.5901 61.2676C62.7366 60.3571 61.5796 59.9019 60.1189 59.9019Z" fill="black"/>
<path d="M70.3186 57.8096C70.3186 57.6966 70.4103 57.6049 70.5234 57.6049H79.0334C80.773 57.6049 82.1927 57.9498 83.2923 58.6396C84.3919 59.3293 84.9417 60.3778 84.9417 61.785C84.9417 62.6403 84.6955 63.3922 84.2031 64.0405C83.8678 64.4728 83.4448 64.8218 82.9343 65.0877C82.7442 65.1867 82.7645 65.5627 82.958 65.655C83.9768 66.1408 84.5723 67.2029 84.7447 68.8414C84.7447 68.9104 84.7611 69.1242 84.794 69.4829C84.8268 69.8416 84.8596 70.1313 84.8924 70.3521C84.9253 70.559 84.9663 70.8142 85.0155 71.1177C85.0648 71.4212 85.1386 71.6764 85.2371 71.8834C85.3156 72.0484 85.1878 72.3386 85.005 72.3386H81.7101C81.6379 72.3386 81.5703 72.301 81.5373 72.2367C81.4338 72.0348 81.3541 71.7929 81.2982 71.5109C81.2326 71.166 81.1751 70.7314 81.1259 70.2072C81.0767 69.6692 81.052 69.3726 81.052 69.3174C80.9207 68.2827 80.6089 67.5653 80.1166 67.1653C79.6406 66.7652 78.7872 66.5652 77.5563 66.5652H74.3392C74.2261 66.5652 74.1344 66.6568 74.1344 66.7699V72.1339C74.1344 72.247 74.0427 72.3386 73.9296 72.3386H70.5234C70.4103 72.3386 70.3186 72.247 70.3186 72.1339V57.8096ZM74.3392 60.1502C74.2261 60.1502 74.1344 60.2418 74.1344 60.3549V64.022C74.1344 64.1351 74.2261 64.2268 74.3392 64.2268H77.7779C78.8446 64.2268 79.6734 64.0888 80.2643 63.8129C80.8715 63.5232 81.1751 62.9645 81.1751 62.1367C81.1751 61.3642 80.8797 60.84 80.2889 60.564C79.7145 60.2881 78.9349 60.1502 77.9502 60.1502H74.3392Z" fill="black"/>
<path d="M86.9356 72.3386C86.8226 72.3386 86.7309 72.247 86.7309 72.1339V57.8096C86.7309 57.6966 86.8226 57.6049 86.9356 57.6049H93.8208C96.5452 57.6049 98.6377 58.2395 100.098 59.5087C101.575 60.7779 102.314 62.5989 102.314 64.9718C102.314 67.3446 101.575 69.1656 100.098 70.4348C98.6377 71.704 96.5452 72.3386 93.8208 72.3386H86.9356ZM90.5467 69.4437C90.5467 69.5568 90.6383 69.6485 90.7514 69.6485H93.3531C96.7504 69.6485 98.449 68.0896 98.449 64.9718C98.449 63.468 98.0223 62.3161 97.1689 61.5159C96.3319 60.702 95.06 60.295 93.3531 60.295H90.7514C90.6383 60.295 90.5467 60.3867 90.5467 60.4998V69.4437Z" fill="black"/>
</svg>
