<svg width="101" height="122" viewBox="0 0 101 122" fill="none" xmlns="http://www.w3.org/2000/svg">
<g clip-path="url(#clip0)">
<path fill-rule="evenodd" clip-rule="evenodd" d="M0 1.0202C0 0.45676 0.45676 0 1.0202 0H59.6753C59.9523 0 60.2174 0.11264 60.4097 0.312042L88.9819 29.9425C89.1652 30.1326 89.2677 30.3865 89.2677 30.6506V74.7298C89.2677 75.2932 88.8109 75.75 88.2475 75.75H84.6768C84.1133 75.75 83.6566 75.2932 83.6566 74.7298V33.5237C83.6566 32.9603 83.1998 32.5035 82.6364 32.5035H58.7448C58.1813 32.5035 57.7246 32.0468 57.7246 31.4833V6.63131C57.7246 6.06787 57.2678 5.61111 56.7044 5.61111H6.63131C6.06787 5.61111 5.61111 6.06787 5.61111 6.63131V108.141C5.61111 108.705 6.06787 109.162 6.63132 109.162H57.3864C57.9498 109.162 58.4066 109.618 58.4066 110.182V113.753C58.4066 114.316 57.9498 114.773 57.3864 114.773H1.0202C0.45676 114.773 0 114.316 0 113.753V1.0202Z" fill="black"/>
<circle cx="74.7299" cy="96.154" r="29.5859" fill="white"/>
<path fill-rule="evenodd" clip-rule="evenodd" d="M74.7299 121.659C88.816 121.659 100.235 110.24 100.235 96.154C100.235 82.0679 88.816 70.6489 74.7299 70.6489C60.6439 70.6489 49.2249 82.0679 49.2249 96.154C49.2249 110.24 60.6439 121.659 74.7299 121.659ZM90.7854 88.6571C91.1838 88.2587 91.1838 87.6127 90.7854 87.2143L88.2605 84.6895C87.8621 84.291 87.2161 84.291 86.8177 84.6895L70.2852 101.222C69.8936 101.614 69.2612 101.621 68.8602 101.239L61.5905 94.3158C61.1825 93.9272 60.5367 93.943 60.1481 94.351L57.6856 96.9367C57.297 97.3447 57.3127 97.9904 57.7208 98.379L68.9558 109.079C69.3568 109.461 69.9892 109.453 70.3808 109.062L90.7854 88.6571Z" fill="black"/>
<rect x="13.5176" y="26.7803" width="35.7071" height="5.61111" fill="black"/>
<rect x="13.5176" y="65.5481" width="35.7071" height="5.61111" fill="black"/>
<rect x="13.5176" y="85.9521" width="27.5455" height="5.61111" fill="black"/>
<rect x="13.5176" y="47.1843" width="55.0909" height="6.12121" fill="black"/>
</g>
<defs>
<clipPath id="clip0">
<rect width="101" height="122" fill="white"/>
</clipPath>
</defs>
</svg>
