<svg width="181" height="110" viewBox="0 0 181 110" fill="none" xmlns="http://www.w3.org/2000/svg">
<g clip-path="url(#clip0)">
<path d="M72.2913 105.551L77.2101 100.633C77.5271 100.316 78.0699 100.525 78.0923 100.972L78.5022 109.17C78.523 109.586 78.0691 109.855 77.7146 109.637L72.386 106.357C72.1015 106.182 72.0551 105.788 72.2913 105.551Z" fill="black"/>
<path d="M99.2883 71.9312L93.69 78.7292C93.3574 79.1331 93.7662 79.7189 94.26 79.546L102.258 76.7469C102.567 76.6386 102.699 76.2737 102.53 75.9927L100.131 71.9939C99.9471 71.6876 99.5154 71.6554 99.2883 71.9312Z" fill="black"/>
<path d="M67.8614 74.3638L76.3182 79.4379C76.7299 79.6849 77.2267 79.2864 77.0749 78.8309L74.115 69.9513C74.006 69.6242 73.6135 69.4934 73.33 69.6896L67.8331 73.4952C67.5242 73.709 67.5392 74.1705 67.8614 74.3638Z" fill="black"/>
<path d="M180.234 38.7241L177.032 54.7351C176.912 55.3336 176.303 55.6988 175.718 55.5224L95.0633 31.1737C94.7597 31.0821 94.4272 31.1303 94.1857 31.3357C90.6896 34.3103 89.8774 42.3909 89.9053 47.0226C89.9088 47.6094 89.4403 48.0943 88.8535 48.0943H79.5854C79.0142 48.0943 78.5508 47.6059 78.5549 47.0347C78.8801 1.56704 100.175 2.56594 110.097 0C99.275 4.25146 96.0355 12.1437 95.6561 16.2558C95.6123 16.7306 95.9428 17.1452 96.4061 17.2582L179.465 37.5164C180.003 37.6478 180.342 38.1804 180.234 38.7241Z" fill="black"/>
<path fill-rule="evenodd" clip-rule="evenodd" d="M15.3432 64.2877L74.9679 86.3203C75.6755 86.5818 75.8742 87.4884 75.3408 88.0218L72.6484 90.7142C72.4545 90.9082 72.3455 91.1713 72.3455 91.4456V97.8287C72.3455 98.103 72.2365 98.3661 72.0425 98.5601L65.0507 105.552C64.7683 105.834 64.3486 105.929 63.9723 105.795L7.57216 85.7042C1.62764 83.5867 -1.46282 77.0402 0.680082 71.1048C2.82785 65.1559 9.41056 62.0955 15.3432 64.2877ZM26.2975 83.2989C26.5168 83.0055 26.8988 82.8666 27.2405 82.9984L30.6761 84.3239C31.0701 84.4758 31.2667 84.9265 31.0683 85.2992C30.9226 85.573 30.7761 85.7989 30.6289 85.977C30.3938 86.2806 30.0044 86.6532 29.4606 87.0948C27.068 89.0688 24.0669 89.3596 20.4574 87.9671C17.6691 86.8914 15.7475 85.25 14.6926 83.0431C13.6606 80.8279 13.6167 78.4967 14.5607 76.0496C15.5048 73.6024 17.1287 71.9404 19.4322 71.0634C21.7416 70.1715 24.2562 70.2502 26.9761 71.2995C29.1144 72.1245 30.7689 73.3885 31.9395 75.0915C32.944 76.5528 33.3157 78.0793 33.0545 79.6708C32.9834 80.1039 32.5214 80.3301 32.1119 80.1721L28.7257 78.8658C28.4037 78.7416 28.2165 78.4127 28.214 78.0676C28.2027 76.5438 27.3069 75.4385 25.5264 74.7516C24.2263 74.25 23.0101 74.2951 21.8778 74.8868C20.7684 75.4702 19.9259 76.508 19.3502 78.0002C18.7918 79.4475 18.7306 80.7525 19.1665 81.9149C19.6195 83.0839 20.496 83.9192 21.7961 84.4208C23.6915 85.152 25.1919 84.778 26.2975 83.2989ZM50.9372 80.9807C51.3235 81.1297 51.5158 81.5637 51.3668 81.95L50.5422 84.0875C50.3931 84.4738 49.9592 84.6661 49.5729 84.5171L45.5576 82.968C45.1713 82.819 44.7373 83.0114 44.5883 83.3976L40.3442 94.3986C40.1952 94.7849 39.7612 94.9772 39.375 94.8282L35.9499 93.5068C35.5636 93.3578 35.3712 92.9238 35.5203 92.5375L39.7643 81.5366C39.9134 81.1503 39.721 80.7163 39.3347 80.5673L35.3195 79.0182C34.9332 78.8692 34.7408 78.4352 34.8898 78.049L35.7145 75.9114C35.8635 75.5251 36.2975 75.3328 36.6838 75.4818L50.9372 80.9807ZM47.3862 97.1153C47.2372 97.5016 47.4295 97.9356 47.8158 98.0846L51.1896 99.3862C51.5759 99.5352 52.0098 99.3428 52.1589 98.9566L53.6743 95.0285C53.8233 94.6422 54.2573 94.4498 54.6436 94.5988L57.9727 95.8832C59.9399 96.6421 61.675 96.8058 63.1778 96.3742C64.6807 95.9426 65.766 94.8613 66.4338 93.1304C67.1591 91.2503 67.0444 89.6375 66.0895 88.292C65.1347 86.9465 63.5368 85.8415 61.2958 84.977L53.9639 82.1484C53.5776 81.9993 53.1436 82.1917 52.9946 82.578L47.3862 97.1153ZM55.887 91.3758C55.5007 91.2268 55.3084 90.7928 55.4574 90.4065L56.4547 87.8213C56.6038 87.435 57.0377 87.2427 57.424 87.3917L59.8037 88.3098C60.6933 88.653 61.3171 89.0736 61.6752 89.5718C62.039 90.055 62.0799 90.6622 61.7978 91.3933C61.6251 91.841 61.3985 92.1736 61.1181 92.3911C60.8605 92.6003 60.5376 92.6986 60.1495 92.6859C59.7784 92.6799 59.4303 92.6399 59.1051 92.5659C58.7856 92.4769 58.3779 92.3368 57.8818 92.1454L55.887 91.3758Z" fill="black"/>
<path fill-rule="evenodd" clip-rule="evenodd" d="M132.432 69.5375L89.962 88.977C89.3954 89.2363 89.1851 89.9341 89.514 90.4634L100.552 108.226C100.826 108.668 101.386 108.837 101.859 108.621L141.942 90.3652C147.696 87.7446 150.236 80.9557 147.615 75.2019C144.991 69.4403 138.189 66.9026 132.432 69.5375ZM122.856 85.6099C123.175 85.766 123.342 86.1242 123.256 86.469L120.97 95.6006C120.816 96.2139 121.441 96.7317 122.015 96.4668L125.801 94.7192C126.022 94.6171 126.18 94.4142 126.225 94.1748L127.253 88.7053C127.35 88.1901 127.931 87.9292 128.38 88.1988L133.061 91.0057C133.275 91.1338 133.538 91.148 133.764 91.0436L137.836 89.1637C138.408 88.8996 138.422 88.0914 137.859 87.808L129.479 83.5898C129.166 83.4321 129.003 83.0788 129.087 82.7381L131.046 74.7556C131.196 74.1432 130.572 73.6285 129.999 73.8928L126.378 75.5643C126.147 75.671 125.986 75.8873 125.949 76.1392L125.261 80.8624C125.183 81.3973 124.583 81.6781 124.122 81.3956L120.008 78.8736C119.794 78.7421 119.528 78.7264 119.3 78.8319L115.434 80.6161C114.858 80.882 114.849 81.6973 115.419 81.9758L122.856 85.6099ZM107.801 84.6072C107.578 84.4101 107.259 84.3635 106.988 84.4884L103.011 86.3243C102.741 86.4491 102.569 86.7214 102.574 87.0191L102.834 104.156C102.842 104.7 103.408 105.056 103.902 104.828L107.32 103.25C107.593 103.124 107.765 102.847 107.757 102.546L107.689 100.134C107.68 99.8329 107.852 99.5557 108.126 99.4294L113.589 96.9077C113.864 96.7806 114.189 96.8312 114.413 97.0361L116.177 98.6528C116.401 98.8577 116.726 98.9084 117.001 98.7812L120.468 97.1809C120.962 96.9529 121.058 96.2925 120.65 95.9328L107.801 84.6072ZM110.823 93.5056C111.2 93.8743 111.091 94.5059 110.612 94.7268L108.409 95.7437C107.929 95.9657 107.375 95.6347 107.343 95.106L107.137 91.731C107.096 91.0433 107.923 90.6655 108.415 91.1475L110.823 93.5056Z" fill="black"/>
</g>
<defs>
<clipPath id="clip0">
<rect width="181" height="110" fill="white"/>
</clipPath>
</defs>
</svg>
