<svg width="159" height="134" viewBox="0 0 159 134" fill="none" xmlns="http://www.w3.org/2000/svg">
<g clip-path="url(#clip0)">
<circle cx="122.108" cy="10.3922" r="10.3922" fill="#010002"/>
<path d="M106 113.794H20.7843M20.7843 113.794V101.843C20.7843 98.9732 18.458 96.6468 15.5883 96.6468H9.87258M20.7843 113.794V131.98M123.667 99.2449V126.784C123.667 129.654 121.34 131.98 118.471 131.98H106M106 131.98V99.2449M106 131.98H20.7843M20.7843 131.98H8.31375C5.44404 131.98 3.11768 129.654 3.11768 126.784V101.843C3.11768 98.9732 5.44404 96.6468 8.31375 96.6468H9.87258M9.87258 96.6468V93.0096C9.87258 87.2702 14.5253 82.6174 20.2647 82.6174H56.1177" stroke="black" stroke-width="5.71569"/>
<circle cx="38.4511" cy="99.245" r="2.59804" fill="black"/>
<circle cx="63.3922" cy="99.245" r="2.59804" fill="black"/>
<circle cx="88.3334" cy="99.245" r="2.59804" fill="black"/>
<path d="M50.402 75.3432L84.1765 41.5687L129.382 31.1765C128.135 36.9961 131.634 80.3661 133.539 101.324C127.304 97.6863 124.706 99.2451 91.451 99.7648C64.8471 100.18 53 83.6569 50.402 75.3432Z" fill="#EA3F52"/>
<path d="M75.5024 96.0766L97.8038 61.6954C98.3786 60.8092 99.3631 60.2743 100.419 60.2743H105.45C106.143 60.2743 106.818 60.5021 107.351 60.9459C109.166 62.4588 112.191 65.2386 114.314 68.0685C116.808 71.394 115.353 74.6502 114.314 75.8626L100.858 89.7666C99.6748 90.9895 99.6908 92.9357 100.894 94.1391L102.327 95.5716C103.508 96.7534 105.409 96.7954 106.643 95.668C111.539 91.1941 119.401 84.0936 123.667 80.5391C128.655 76.3822 127.131 71.879 125.745 70.1469L116.458 56.6805C115.782 55.7001 115.723 54.4201 116.307 53.382L124.397 38.9994C124.601 38.6374 124.875 38.3197 125.203 38.065L156.857 13.4976C158.293 12.3833 158.475 10.2823 157.253 8.93754L156.137 7.70981C155.095 6.56462 153.372 6.35654 152.088 7.22107L128.863 22.8625C121.355 27.1061 116.987 26.0733 114.954 24.3438C114.067 23.5889 113.059 22.8263 111.894 22.7876C90.8423 22.0882 89.3135 26.5886 87.2942 29.6174L81.3939 40.5751C80.6193 42.0137 81.0867 43.8063 82.4651 44.6834L82.9003 44.9604C84.4305 45.9341 86.4657 45.4012 87.3222 43.8024L92.648 33.8609C93.1907 32.8478 94.2468 32.2155 95.3961 32.2155H101.044C101.853 32.2155 102.351 33.0978 101.935 33.7905L67.5248 90.9789C66.666 92.4061 67.0808 94.2563 68.4668 95.1802L71.1575 96.974C72.6029 97.9376 74.5571 97.534 75.5024 96.0766Z" fill="#010002"/>
</g>
<defs>
<clipPath id="clip0">
<rect width="159" height="134" fill="white"/>
</clipPath>
</defs>
</svg>
