<svg width="64" height="64" viewBox="0 0 64 64" fill="none" xmlns="http://www.w3.org/2000/svg">
<circle cx="32" cy="32" r="32" fill="white"/>
<path d="M40.4406 14.3521L35.8617 14.3447C30.7174 14.3447 27.3929 17.7555 27.3929 23.0346V27.0413H22.789C22.3911 27.0413 22.069 27.3638 22.069 27.7617V33.5668C22.069 33.9646 22.3915 34.2868 22.789 34.2868H27.3929V48.9351C27.3929 49.3329 27.7151 49.6551 28.1129 49.6551H34.1197C34.5176 49.6551 34.8397 49.3325 34.8397 48.9351V34.2868H40.2228C40.6206 34.2868 40.9428 33.9646 40.9428 33.5668L40.945 27.7617C40.945 27.5706 40.869 27.3877 40.7342 27.2525C40.5993 27.1173 40.4157 27.0413 40.2246 27.0413H34.8397V23.6448C34.8397 22.0123 35.2288 21.1836 37.3553 21.1836L40.4399 21.1825C40.8374 21.1825 41.1595 20.86 41.1595 20.4625V15.0721C41.1595 14.675 40.8377 14.3528 40.4406 14.3521Z" fill="#171714"/>
</svg>
