<svg width="64" height="64" viewBox="0 0 64 64" fill="none" xmlns="http://www.w3.org/2000/svg">
<circle cx="32" cy="32" r="32" fill="white"/>
<path d="M19.6439 15.4482H43.9409C46.2483 15.4482 48.1362 17.1566 48.1362 19.6436V43.9412C48.1362 46.4282 46.2483 48.1365 43.9409 48.1365H19.6439C17.3358 48.1365 15.4482 46.4282 15.4482 43.9412V19.6436C15.4482 17.1566 17.3358 15.4482 19.6439 15.4482ZM44.442 29.272H41.565C41.8372 30.1607 41.9845 31.1022 41.9845 32.0762C41.9845 37.5133 37.4348 41.9207 31.8234 41.9207C26.2124 41.9207 21.6634 37.5133 21.6634 32.0762C21.6634 31.1015 21.8104 30.1604 22.0829 29.272H19.0807V43.08C19.0807 43.7945 19.6654 44.3795 20.3803 44.3795H43.1431C43.858 44.3795 44.4426 43.7949 44.4426 43.08V29.272H44.442ZM31.8231 25.3603C28.1977 25.3603 25.2583 28.2081 25.2583 31.7214C25.2583 35.2347 28.1977 38.0825 31.8231 38.0825C35.4489 38.0825 38.3886 35.2347 38.3886 31.7214C38.3886 28.2081 35.4492 25.3603 31.8231 25.3603Z" fill="#171714"/>
</svg>
