<?xml version="1.0" standalone="no"?>
<!DOCTYPE svg PUBLIC "-//W3C//DTD SVG 20010904//EN"
 "http://www.w3.org/TR/2001/REC-SVG-20010904/DTD/svg10.dtd">
<svg version="1.0" xmlns="http://www.w3.org/2000/svg"
 width="200.000000pt" height="200.000000pt" viewBox="0 0 200.000000 200.000000"
 preserveAspectRatio="xMidYMid meet">
<metadata>
Created by potrace 1.11, written by Peter Selinger 2001-2013
</metadata>
<g transform="translate(0.000000,200.000000) scale(0.100000,-0.100000)"
fill="#000000" stroke="none">
<path d="M810 1990 c-19 -5 -46 -13 -60 -17 -14 -4 -68 -8 -120 -9 -52 -1
-102 -3 -110 -3 -10 -1 -1 -14 23 -36 43 -40 47 -54 12 -50 -14 1 -25 -1 -25
-6 0 -5 -15 -9 -32 -9 -18 0 -44 -2 -58 -4 -14 -2 -35 -5 -47 -5 -28 -1 -30
-21 -3 -28 33 -9 24 -33 -12 -34 -18 -1 -44 -4 -58 -8 l-25 -7 23 -13 c36 -19
72 -53 72 -67 0 -7 -10 -15 -22 -19 -13 -3 -44 -16 -70 -27 -43 -19 -48 -25
-48 -53 0 -17 5 -36 11 -42 8 -8 8 -13 0 -17 -24 -15 -9 -26 35 -26 l46 0 -26
-35 c-29 -37 -25 -42 21 -24 25 10 38 13 87 22 17 3 10 -53 -16 -129 -8 -22
-11 -47 -8 -55 43 -88 59 -130 49 -127 -6 2 -22 23 -35 48 -26 48 -41 66 -49
58 -3 -3 13 -41 35 -84 24 -45 37 -80 31 -82 -6 -2 -11 -7 -11 -12 0 -4 -7
-24 -15 -44 -8 -20 -15 -39 -14 -42 0 -4 -3 -10 -8 -13 -5 -3 -13 -17 -20 -31
-9 -21 -7 -30 8 -49 15 -19 27 -22 58 -19 34 3 40 0 50 -24 7 -16 13 -43 14
-61 1 -17 8 -33 15 -33 6 -1 18 -2 25 -3 7 -1 2 -10 -12 -21 -17 -15 -19 -20
-8 -20 24 0 44 -36 42 -73 -3 -38 -14 -100 -20 -105 -5 -5 12 -26 43 -55 30
-28 67 -31 143 -12 101 27 152 27 180 2 14 -12 26 -33 26 -46 1 -13 8 -28 15
-32 9 -6 9 -9 1 -9 -11 0 -10 -30 2 -49 3 -5 1 -12 -5 -16 -6 -4 -8 -11 -5
-16 4 -5 -1 -9 -9 -9 -8 0 -27 -5 -41 -12 -24 -11 -26 -15 -20 -55 5 -37 3
-43 -12 -43 -29 0 -42 -13 -48 -50 -3 -19 -11 -38 -18 -42 -7 -4 -9 -8 -5 -8
3 0 -2 -17 -12 -37 -13 -27 -15 -40 -7 -45 6 -4 14 -5 17 -3 5 3 139 40 180
50 8 2 16 4 18 5 2 3 0 2 75 20 31 7 57 17 57 22 0 5 4 7 8 4 4 -2 45 6 90 19
46 12 84 23 85 23 1 0 9 3 17 6 18 5 63 15 70 15 3 0 19 5 35 11 17 7 37 13
46 15 61 12 158 48 172 62 20 23 19 32 -4 65 -10 14 -19 39 -19 55 0 16 -3 33
-7 37 -5 4 -8 11 -8 14 -1 4 -6 17 -13 30 -10 18 -17 20 -32 12 -29 -15 -26
-19 -48 55 -3 11 -6 58 -6 105 1 83 2 87 57 194 31 60 55 112 52 114 -3 3 -1
10 5 16 9 12 18 66 25 152 2 27 4 49 5 49 3 0 21 97 23 125 1 14 5 27 9 30 12
10 15 65 4 79 -9 12 -8 13 4 6 12 -7 13 -6 4 6 -5 8 -10 21 -9 29 1 8 -4 30
-12 49 -7 18 -10 37 -7 42 3 5 -2 12 -10 15 -21 8 -21 24 0 24 23 0 -31 92
-80 137 -27 25 -32 33 -17 28 11 -3 21 -4 21 -1 0 9 -171 176 -189 185 -9 4
-26 6 -39 5 -18 -1 -23 3 -19 17 4 15 2 17 -12 10 -9 -5 -23 -6 -30 -2 -11 7
-11 9 0 13 20 7 -59 28 -106 28 -23 0 -55 -9 -74 -21 -19 -11 -37 -17 -40 -12
-3 5 -17 16 -31 24 -29 18 -163 23 -220 9z"/>
</g>
</svg>
