<svg width="64" height="64" viewBox="0 0 64 64" fill="none" xmlns="http://www.w3.org/2000/svg">
<circle cx="32" cy="32" r="32" fill="white"/>
<path d="M52.8394 41.5175C52.7885 41.4078 52.7411 41.3168 52.697 41.244C51.9678 39.9307 50.5744 38.3187 48.5175 36.4076L48.4741 36.3639L48.4523 36.3424L48.4303 36.3204H48.4082C47.4747 35.4305 46.8836 34.8322 46.636 34.5258C46.183 33.9423 46.0816 33.3516 46.3291 32.7531C46.504 32.3009 47.161 31.3459 48.2985 29.8869C48.8969 29.1136 49.3708 28.4939 49.7207 28.027C52.2447 24.6715 53.3389 22.5274 53.0032 21.5936L52.8728 21.3754C52.7852 21.2441 52.5591 21.1239 52.1948 21.0143C51.8297 20.9049 51.363 20.8868 50.794 20.9597L44.4921 21.0032C44.39 20.9671 44.2442 20.9704 44.0543 21.0143C43.8646 21.0581 43.7697 21.0801 43.7697 21.0801L43.66 21.1349L43.573 21.2008C43.5 21.2443 43.4198 21.3209 43.3322 21.4303C43.245 21.5394 43.1721 21.6674 43.1139 21.8132C42.4278 23.5784 41.6477 25.2195 40.7722 26.7366C40.2324 27.6412 39.7367 28.4252 39.2839 29.089C38.8318 29.7526 38.4525 30.2415 38.1464 30.5549C37.8398 30.8686 37.5632 31.1199 37.3147 31.3097C37.0666 31.4997 36.8772 31.5799 36.7461 31.5505C36.6146 31.5212 36.4909 31.4921 36.3737 31.4629C36.1696 31.3316 36.0054 31.1529 35.8816 30.9268C35.7573 30.7007 35.6736 30.4162 35.6298 30.0733C35.5863 29.7303 35.5606 29.4352 35.5532 29.1871C35.5464 28.9393 35.5495 28.5888 35.5643 28.1366C35.5795 27.6842 35.5863 27.3781 35.5863 27.2176C35.5863 26.6632 35.5971 26.0615 35.6188 25.4123C35.6409 24.7631 35.6587 24.2488 35.6737 23.8698C35.6885 23.4905 35.6954 23.0892 35.6954 22.6662C35.6954 22.2431 35.6697 21.9113 35.6188 21.6705C35.5685 21.43 35.4913 21.1965 35.3896 20.9702C35.2873 20.7441 35.1376 20.5692 34.9411 20.4451C34.7442 20.321 34.4994 20.2226 34.208 20.1495C33.4348 19.9745 32.4502 19.8799 31.2537 19.8652C28.5404 19.836 26.797 20.0113 26.0239 20.3906C25.7175 20.5508 25.4403 20.7698 25.1924 21.0468C24.9298 21.3678 24.8932 21.543 25.0828 21.5719C25.9582 21.703 26.5779 22.0167 26.9427 22.5127L27.0741 22.7755C27.1764 22.9651 27.2784 23.3008 27.3806 23.7821C27.4826 24.2634 27.5485 24.7958 27.5774 25.3791C27.6502 26.4442 27.6502 27.356 27.5774 28.1144C27.5044 28.8732 27.4354 29.4639 27.3696 29.8869C27.3037 30.31 27.2053 30.6528 27.0741 30.9153C26.9427 31.1779 26.8552 31.3384 26.8114 31.3966C26.7676 31.4549 26.7311 31.4916 26.7022 31.506C26.5125 31.5787 26.3153 31.6157 26.1112 31.6157C25.9068 31.6157 25.659 31.5134 25.3673 31.3091C25.0756 31.1048 24.773 30.8241 24.4593 30.4667C24.1456 30.1091 23.7918 29.6095 23.3978 28.9677C23.0041 28.3259 22.5956 27.5673 22.1725 26.6921L21.8225 26.0573C21.6036 25.649 21.3047 25.0544 20.9254 24.2741C20.5459 23.4935 20.2104 22.7384 19.9188 22.009C19.8022 21.7026 19.6271 21.4694 19.3937 21.3089L19.2842 21.2431C19.2114 21.1848 19.0945 21.123 18.9342 21.057C18.7736 20.9912 18.6061 20.944 18.4309 20.915L12.4352 20.9585C11.8225 20.9585 11.4068 21.0973 11.1879 21.3745L11.1003 21.5056C11.0565 21.5787 11.0344 21.6953 11.0344 21.8559C11.0344 22.0164 11.0782 22.2134 11.1658 22.4466C12.0411 24.5037 12.9929 26.4876 14.0213 28.3986C15.0497 30.3096 15.9433 31.849 16.7017 33.0153C17.4602 34.1825 18.2334 35.2841 19.0212 36.3196C19.809 37.3554 20.3305 38.0192 20.5857 38.3108C20.8411 38.603 21.0418 38.8214 21.1876 38.9673L21.7348 39.4924C22.0849 39.8425 22.599 40.2619 23.2774 40.7505C23.9559 41.2394 24.7071 41.7208 25.5313 42.1953C26.3557 42.669 27.3147 43.0556 28.4089 43.3546C29.503 43.6538 30.5679 43.7739 31.6037 43.716H34.1202C34.6306 43.6719 35.0172 43.5114 35.28 43.2345L35.3671 43.1248C35.4257 43.0377 35.4805 42.9024 35.531 42.7204C35.5822 42.5381 35.6077 42.3372 35.6077 42.1187C35.5927 41.4915 35.6405 40.9263 35.7496 40.423C35.8587 39.92 35.983 39.5406 36.122 39.2852C36.261 39.03 36.4178 38.8146 36.5923 38.64C36.7672 38.465 36.8918 38.359 36.965 38.3226C37.0376 38.2858 37.0956 38.2609 37.1394 38.246C37.4895 38.1293 37.9015 38.2423 38.3761 38.5854C38.8503 38.9283 39.2951 39.3516 39.7111 39.8547C40.1269 40.3582 40.6264 40.9231 41.2098 41.5503C41.7936 42.1777 42.3041 42.6441 42.7415 42.9509L43.179 43.2135C43.4712 43.3887 43.8505 43.5492 44.3174 43.695C44.7835 43.8408 45.1918 43.8773 45.5425 43.8044L51.1441 43.717C51.6981 43.717 52.1292 43.6253 52.435 43.4432C52.7415 43.2609 52.9235 43.06 52.9822 42.8415C53.0407 42.6228 53.0439 42.3746 52.9933 42.0971C52.9414 41.8204 52.8903 41.6269 52.8394 41.5175Z" fill="#171714"/>
</svg>
